<svg width="11" height="11" viewBox="0 0 11 11" fill="none" xmlns="http://www.w3.org/2000/svg">
<path d="M2.17788 4.57668L3.91319 2.83838L4.42057 3.34876C4.34851 3.60395 4.4656 3.88316 4.69977 4.01826V5.68151C4.51964 5.78359 4.39955 5.97873 4.39955 6.2009C4.39955 6.36015 4.46281 6.51288 4.57542 6.62548C4.68802 6.73809 4.84075 6.80135 5 6.80135C5.15925 6.80135 5.31198 6.73809 5.42458 6.62548C5.53719 6.51288 5.60045 6.36015 5.60045 6.2009C5.60045 5.97873 5.48036 5.78359 5.30023 5.68151V4.22242L5.92169 4.84989C5.90068 4.89492 5.90068 4.94596 5.90068 5C5.90068 5.15925 5.96394 5.31198 6.07654 5.42458C6.18915 5.53719 6.34188 5.60045 6.50113 5.60045C6.66038 5.60045 6.8131 5.53719 6.92571 5.42458C7.03831 5.31198 7.10158 5.15925 7.10158 5C7.10158 4.84075 7.03831 4.68802 6.92571 4.57542C6.8131 4.46281 6.66038 4.39955 6.50113 4.39955C6.44709 4.39955 6.39605 4.39955 6.35101 4.42057L5.57943 3.64899C5.65749 3.36978 5.51339 3.06355 5.23418 2.94646C5.10508 2.89842 4.96998 2.88641 4.84989 2.91944L4.3395 2.41206L4.57668 2.17788C4.81086 1.94071 5.18914 1.94071 5.42332 2.17788L7.82212 4.57668C8.05929 4.81086 8.05929 5.18914 7.82212 5.42332L5.42332 7.82212C5.18914 8.05929 4.81086 8.05929 4.57668 7.82212L2.17788 5.42332C1.94071 5.18914 1.94071 4.81086 2.17788 4.57668Z" fill="#E64A19"/>
<g clip-path="url(#clip0)">
<path d="M6.63488 7.03156L7.46738 6.54523C7.48821 6.53306 7.51397 6.53293 7.53492 6.54489L8.37236 7.02268C8.3933 7.03464 8.40631 7.05687 8.40643 7.081L8.41136 8.04512C8.41148 8.06924 8.3987 8.09161 8.37788 8.1038L7.54537 8.59013C7.52454 8.6023 7.49878 8.60243 7.47783 8.59047L6.64041 8.11268C6.61945 8.10072 6.60646 8.07848 6.60634 8.05434L6.60141 7.09022C6.6013 7.06609 6.61407 7.04373 6.63488 7.03156" fill="#7986CB"/>
<path d="M9.67684 7.45519L8.67036 5.72475C8.63381 5.66219 8.56663 5.61624 8.49417 5.61661L6.49884 5.6268C6.42636 5.62717 6.35964 5.6738 6.32372 5.73674L5.33495 7.47357C5.29904 7.53653 5.29944 7.61574 5.336 7.67833L6.34241 9.39457C6.37896 9.45714 6.44609 9.48888 6.51856 9.48851L8.5139 9.47832C8.58635 9.47795 8.65315 9.44649 8.68906 9.38353L9.67786 7.65429C9.71381 7.59137 9.71344 7.51779 9.67686 7.45522L9.67684 7.45519ZM8.85505 8.29402C8.85518 8.31953 8.83994 8.34321 8.81788 8.3561L7.55088 9.09575C7.52885 9.10862 7.50116 9.10876 7.47899 9.09611L6.20352 8.36946C6.18136 8.35679 6.16577 8.33329 6.16564 8.30776L6.15815 6.84143C6.15802 6.81589 6.17314 6.79223 6.19519 6.77935L7.46214 6.0397C7.48418 6.02681 7.51183 6.02667 7.534 6.03933L8.80955 6.76599C8.83174 6.77865 8.84743 6.80216 8.84756 6.82769L8.85505 8.29402Z" fill="#3F51B5"/>
</g>
<defs>
<clipPath id="clip0">
<rect x="5" y="5.02554" width="5" height="5" transform="rotate(-0.29269 5 5.02554)" fill="white"/>
</clipPath>
</defs>
</svg>
